<?xml version="1.0" encoding="utf-8"?>
<!-- Generator: Adobe Illustrator 25.0.1, SVG Export Plug-In . SVG Version: 6.00 Build 0)  -->
<svg version="1.1" id="design" xmlns="http://www.w3.org/2000/svg" xmlns:xlink="http://www.w3.org/1999/xlink" x="0px" y="0px"
	 viewBox="0 0 2500 2500" style="enable-background:new 0 0 2500 2500;" xml:space="preserve">
<style type="text/css">
	.st0{fill:url(#SVGID_1_);}
	.st1{fill:url(#SVGID_2_);}
	.st2{fill:url(#SVGID_3_);}
	.st3{fill:url(#SVGID_4_);}
</style>
<g id="SIGN">
	<linearGradient id="SVGID_1_" gradientUnits="userSpaceOnUse" x1="2057.3135" y1="1788.7205" x2="1175.656" y2="772.6047">
		<stop  offset="0.4625" style="stop-color:#B8ECD7"/>
		<stop  offset="0.6513" style="stop-color:#B6EAD5"/>
		<stop  offset="0.7395" style="stop-color:#B0E2CE"/>
		<stop  offset="0.8068" style="stop-color:#A4D6C2"/>
		<stop  offset="0.8635" style="stop-color:#94C3B0"/>
		<stop  offset="0.9136" style="stop-color:#7FAB9A"/>
		<stop  offset="0.9582" style="stop-color:#668F7F"/>
		<stop  offset="0.9992" style="stop-color:#486D5F"/>
		<stop  offset="1" style="stop-color:#476C5E"/>
	</linearGradient>
	<path class="st0" d="M2207.17,1350.88c0.33,25.02-3.16,50.65-5.71,76.33c-1.89,21.19-8.21,48.1-12.65,72.46
		c-11.71,48.15-28.51,94.98-49.71,139.3c-22.14,43.99-48.1,85.82-78.83,124.43c-15.91,19.83-33.04,38.61-51.22,56.32
		c-211.29,23.65-328.45-24.17-391.9-74.25c51.41-16.76,98.99-46.02,137.27-83.36c53.2-50.98,88.98-119.38,102.29-191.84
		c1.27-5.71,2.22-11.42,3.16-17.42l1.56-12.7c0.66-6.94,1.27-15.48,1.94-23.41c0.61-16.14,0.61-32.29-0.33-48.43
		c-2.22-32.29-7.93-64.58-17.09-95.59c-19.02-62.36-51.6-119.99-95.31-167.81c-43.71-48.43-99.08-86.43-158.94-111.12
		c-60.75-25.3-126.93-33.56-188.68-31.01c-62.69,3.78-124.72,18.98-181.08,45.27c-56.03,26.58-106.35,63.63-148.79,107.01
		c-82.82,86.58-134.96,198.24-147.64,314.39c-0.1,0.9-0.27,1.79-0.44,2.68c-0.02,0.09-0.03,0.19-0.04,0.28
		c0.61-29.22,22.99-615.6,755.04-883.3c136.75,53.67,258.54,144.4,348.51,259.49h0.33c25.96,32.9,49.38,67.74,69.67,104.46
		c51.59,88.32,83.22,186.79,99.7,286.49C2204.62,1249.57,2209.72,1300.23,2207.17,1350.88z"/>
	<linearGradient id="SVGID_2_" gradientUnits="userSpaceOnUse" x1="1863.4719" y1="1848.5125" x2="1940.8793" y2="1409.5138">
		<stop  offset="0" style="stop-color:#476C5E"/>
		<stop  offset="1.040919e-03" style="stop-color:#486D5F"/>
		<stop  offset="0.0533" style="stop-color:#668F7F"/>
		<stop  offset="0.1102" style="stop-color:#7FAB9A"/>
		<stop  offset="0.174" style="stop-color:#94C3B0"/>
		<stop  offset="0.2464" style="stop-color:#A4D6C2"/>
		<stop  offset="0.3322" style="stop-color:#B0E2CE"/>
		<stop  offset="0.4447" style="stop-color:#B6EAD5"/>
		<stop  offset="0.6854" style="stop-color:#B8ECD7"/>
	</linearGradient>
	<path class="st1" d="M2196.17,1461.67c-2.36,12.6-5.1,25.63-7.36,38c-11.71,48.15-28.51,94.98-49.71,139.3
		c-22.14,43.99-48.1,85.82-78.83,124.43c-15.91,19.83-33.04,38.61-51.22,56.32c-211.29,23.65-328.45-24.17-391.9-74.25
		c51.41-16.76,98.99-46.02,137.27-83.36c53.2-50.98,88.98-119.38,102.29-191.84c0.66-2.83,1.18-5.71,1.7-8.59H2196.17z"/>
	<linearGradient id="SVGID_3_" gradientUnits="userSpaceOnUse" x1="579.1963" y1="1605.2483" x2="1311.7427" y2="336.4408">
		<stop  offset="0" style="stop-color:#B1E001"/>
		<stop  offset="0.1302" style="stop-color:#B3E10D"/>
		<stop  offset="0.3666" style="stop-color:#B9E52D"/>
		<stop  offset="0.6823" style="stop-color:#C3EA62"/>
		<stop  offset="1" style="stop-color:#CEF09D"/>
	</linearGradient>
	<path class="st2" d="M1680.08,549.1c-15.25-5.99-30.68-11.52-46.26-16.57c-97.48-32.29-201-44.04-304.85-42.77
		c-103.52,1.61-206.76,18.36-305.51,49.43c-198.17,61.08-373.91,186.13-504.34,344.74c-128.54,158.61-207.65,354.56-226.96,555.6
		h630.11h0.21h1.67c0-1.14,0.34-3.56,0.62-5.52c0.09-0.62,0.18-1.19,0.25-1.66c0.01-0.08,0.03-0.15,0.04-0.23l-0.03,0.12
		C925.73,1401.23,949.24,816.36,1680.08,549.1z"/>
	<linearGradient id="SVGID_4_" gradientUnits="userSpaceOnUse" x1="1192.9985" y1="1178.3153" x2="1685.1943" y2="2030.8234">
		<stop  offset="0" style="stop-color:#B1E001"/>
		<stop  offset="0.7236" style="stop-color:#C6EB71"/>
		<stop  offset="1" style="stop-color:#CEF09D"/>
	</linearGradient>
	<path class="st3" d="M2009.05,1819.72c-16.95,16.66-34.79,32.38-53.25,47.2c-38.33,30.68-80.72,56.03-124.76,77.23
		c-43.99,21.53-91.15,36.11-138.64,48.76c-12.65,2.88-25.63,5.38-38.61,7.6c-0.33,0-0.33,0-0.66,0
		c-34.79,6.04-70.24,9.2-106.02,9.82c-49.42,0-98.14-4.11-144.68-15.2c-46.87-11.09-92.14-28.8-134.25-53.2
		c-84.21-47.77-154.78-121.55-200.05-208.93c-22.52-43.66-38-91.15-46.87-139.63c-6.51-38.38-8.45-77.56-6.47-116.55
		c0.52-10.24,1.32-20.44,2.36-30.64l0.33-0.61l0.28-0.66c6.33-47.49,20.91-94.03,45.27-134.86c23.46-41.16,55.75-76.94,92.14-105.74
		c74.06-57.31,164.32-84.83,252.31-85.16c44.94,0.33,87.38,5.71,125.99,20.91c39.27,15.48,74.73,38.94,103.52,69.3
		c29.13,30.73,51.31,68.07,63.96,107.96c6.33,19.97,10.43,40.83,12.37,62.07c0.94,10.43,1.23,20.86,1.23,31.63
		c-0.28,5.38-0.28,10.15-0.94,16.47c0,2.22-0.28,7.27-0.61,7.27c0,0.33,0,0.66,0.33,1.27l-1.27,6.66
		c-6.04,44.33-25.96,86.43-57.31,119.05c-31.96,33.23-73.12,55.37-118.39,63.63c-5.38,0.94-11.09,1.89-17.14,2.55
		c-6.33,0.61-12.32,0.61-17.7,0.61c-11.42-0.61-23.74,0.94-33.56-0.94c-21.19-3.16-42.11-9.82-60.8-21.24
		c-37.95-22.14-66.13-59.19-77.56-102.58c-5.66-21.19-6.94-44.94-4.11-66.13c2.83-19.97,11.38-40.83,24.07-57.31
		c25.3-34.18,68.68-55.7,113.95-53.2c40.83,0.94,81.05,32,92.76,74.4c6.04,20.91,5.71,44.66-1.89,63.02
		c-7.93,18.98-24.07,35.45-44.66,43.99l-0.94,0.33c-14.26,5.99-22.14,22.14-17.7,37.34c5.05,16.8,22.14,25.96,38.94,21.24
		c36.4-10.76,69.01-36.11,88.32-70.95c9.49-17.09,15.48-37.34,17.7-56.03c2.22-18.65,1.27-38-2.22-56.98
		c-14.26-76-80.72-139.63-160.83-149.12c-74.4-10.76-155.45,18.03-206.1,77.89c-25.3,30.07-43.33,64.91-51.93,104.46
		c-7.55,37.67-7.55,75.34-0.28,112.73c13.93,74.06,60.47,142.75,124.72,184.24c32,21.19,68.68,35.78,106.4,43.05
		c19.59,4.11,37.67,3.49,56.32,4.77c9.54,0.61,18.69,0.61,27.24,0.28c8.87-0.61,18.36-1.56,27.57-2.83
		c20.44-2.55,40.64-7.13,60.23-13.5C1680.6,1795.55,1797.76,1843.36,2009.05,1819.72z"/>
</g>
</svg>
